<svg xmlns="http://www.w3.org/2000/svg" fill="none" viewBox="0 0 64 64">
  <g>
    <path fill="#fff" d="M0 0h64v64H0z"/>
    <path fill="#227A35" d="M64 0H0v64h64V0z"/>
    <path fill="#fff" d="M14.52 17.94a10.56 10.56 0 0 1 0 21.1A10.57 10.57 0 0 1 3.96 28.5c0-5.81 4.74-10.55 10.56-10.55zm0 18.61a8.06 8.06 0 1 0-.02-16.12 8.06 8.06 0 0 0 .02 16.12z"/>
    <path fill="#fff" d="M14.51 5.1a1.25 1.25 0 0 1 1.25 1.25V19.2h-2.5V9.25l-3.61 3.41-1.72-1.82 5.72-5.4c.24-.22.55-.34.86-.34z"/>
    <path fill="#fff" d="M14.52 5.1c.31 0 .62.12.86.34l5.72 5.4-1.72 1.82-3.61-3.41v9.94h-2.5V6.36a1.25 1.25 0 0 1 1.25-1.26z"/>
    <path fill="#55BC6C" d="M20.86 47.04c-4.9.37-9.2 2.84-11.32 6.49L4.05 64h18.28V46.93l-1.47.11zm31.42 6.48c-2.13-3.65-6.42-6.1-11.32-6.48l-.36-.03V64h17.17l-5.49-10.48z"/>
    <path fill="#295C34" d="M32.2 46.37c-.86-.06-1.72-.06-2.58 0l-7.29.56V64h18.28V47.01l-8.42-.64z"/>
    <path fill="#793B35" d="M29.14 30.77a10.2 10.2 0 1 0 0-20.42 10.2 10.2 0 0 0 0 20.41z"/>
    <path fill="#FBBB97" d="M31.58 53.51a5.4 5.4 0 0 1-5.39-5.39V33.79h10.79v14.33a5.4 5.4 0 0 1-5.4 5.4z"/>
    <path fill="#FBBB97" d="M39.58 39.75h-13.3V20.68l17.36-2.95-.9 18.82c.18 1.72-1.29 3.2-3.16 3.2z"/>
    <path fill="#793B35" d="M38.48 10.35h-7.56a7.4 7.4 0 0 0-7.4 7.4v3.02h1.49v3.9l-2.45.13 1.94 11.52a4.59 4.59 0 0 0 4.94-4.2l.3-3.75a4 4 0 0 0 2.89-3.84v-3.76h9.16a3.55 3.55 0 0 0 3.55-3.55c0-3.8-3.07-6.87-6.86-6.87z"/>
    <path fill="#FBBB97" d="M29.07 31.98c1.3 0 2.37-1.1 2.37-2.46a2.41 2.41 0 0 0-2.37-2.45c-1.3 0-2.36 1.1-2.36 2.45a2.41 2.41 0 0 0 2.36 2.46z"/>
  </g>
</svg>

