<svg xmlns="http://www.w3.org/2000/svg" fill="none" viewBox="0 0 64 64"><path fill="#fff" d="M0 0h64v64H0z"/><path fill="#FF5369" d="M64 0H0v64h64V0z"/><path fill="#633" d="M52.84 46.88H11.15V21.84a3.1 3.1 0 0 1 3.1-3.09h35.5a3.1 3.1 0 0 1 3.1 3.09v25.04z"/><path fill="#fff" d="M30.52 39.08H15.74v-8.2c0-.57.46-1.03 1.03-1.03h12.72c.57 0 1.03.46 1.03 1.03v8.2zm17.74 0H33.48v-8.2c0-.57.46-1.03 1.03-1.03h12.72c.57 0 1.03.46 1.03 1.03v8.2z"/><path fill="#633" d="M12.48 55.66h4.71v-7.78h-6.04v6.44c0 .73.6 1.34 1.33 1.34zm39.03 0h-4.7v-7.78h6.04v6.44c0 .73-.6 1.34-1.34 1.34z"/><path fill="#633" d="M52.31 50.32H11.69a.54.54 0 0 1-.54-.53v-4.71h41.7v4.7c0 .3-.25.54-.54.54z"/><path fill="#fff" d="M51.74 45.74H12.26c-.61 0-1.11.06-1.11.63v1.21c2.08 0 2.08.87 4.17.87 2.08 0 2.08-.87 4.17-.87 2.08 0 2.08.87 4.17.87 2.08 0 2.08-.87 4.17-.87 2.08 0 2.08.87 4.17.87 2.08 0 2.08-.87 4.17-.87 2.08 0 2.08.87 4.17.87 2.08 0 2.08-.87 4.17-.87 2.08 0 2.08.87 4.17.87 2.08 0 2.08-.87 4.17-.87v-1.14c0-.57-.5-.7-1.11-.7z"/><path fill="#F99" d="M32 35.41c-11.52 0-20.85 2.42-20.85 5.4v5.86h41.7v-5.86c0-2.98-9.34-5.4-20.85-5.4z"/><path fill="#FCC" d="M32 24.92a.3.3 0 0 1-.21-.09l-5.63-5.42a3.85 3.85 0 0 1-.13-5.44l.13-.13a3.74 3.74 0 0 1 5.16 0l.68.65.68-.65a3.74 3.74 0 0 1 5.15 0 3.85 3.85 0 0 1 .14 5.43l-.14.14-5.63 5.43a.31.31 0 0 1-.2.08z"/></svg>